P2
#imagem2.pgm
100 100
255
18 6 229 198 152 244 216 242 67 160 13 236 200 251 124 95 113 57 89 60 191 227 222 103 83 40 74 176 14 117 42 4 120 69 215 228 94 57 64 23 192 107 233 156 234 0 52 227 224 252 224 61 255 90 207 144 226 93 12 79 131 33 12 169 162 117 52 1 107 237 156 159 83 50 19 165 67 157 99 68 248 4 214 47 170 212 248 80 235 96 159 187 211 121 41 224 90 63 5 4 
5 54 117 242 197 157 145 237 28 251 144 234 129 250 67 252 6 120 226 16 56 220 11 218 70 166 8 15 102 75 81 213 117 63 81 120 221 83 109 94 188 65 67 61 67 133 47 139 92 111 20 54 143 119 89 150 38 208 49 160 143 64 32 92 3 46 187 153 101 253 175 223 109 152 4 165 5 78 163 196 243 225 22 44 185 217 144 213 185 30 45 249 157 198 122 129 246 44 56 189 
35 66 93 87 117 40 92 138 145 253 166 143 21 245 113 88 126 171 184 129 73 185 131 132 88 135 104 44 152 96 82 76 225 203 129 176 29 24 210 84 173 57 65 212 8 211 172 36 165 149 218 129 28 201 187 167 136 40 241 69 47 243 144 174 101 63 34 209 173 145 239 107 34 170 123 123 21 164 79 247 248 62 252 189 122 117 94 204 244 84 30 180 4 12 122 75 119 71 73 162 
109 186 57 55 183 249 92 108 132 144 227 56 61 79 41 29 173 229 243 90 101 177 246 97 95 212 153 139 225 139 253 11 164 188 58 33 54 206 236 144 157 190 239 81 61 111 102 137 252 66 2 185 163 231 129 52 135 115 116 215 106 178 70 244 156 190 122 143 101 208 52 205 168 87 251 169 192 71 189 233 174 180 19 80 118 159 199 22 198 16 148 149 217 101 44 69 155 233 128 234 
14 168 59 12 236 130 143 168 142 127 53 37 12 98 175 137 166 129 209 237 98 211 127 47 247 75 184 230 234 100 212 155 247 254 9 54 178 104 52 182 110 190 214 37 94 117 93 203 250 52 166 163 164 229 191 11 140 13 241 191 209 88 254 8 233 121 167 49 66 48 113 59 41 172 169 210 236 20 166 127 59 97 78 30 212 110 220 147 96 82 224 185 151 237 134 155 171 193 28 231 
228 3 207 159 135 242 181 18 253 104 17 11 49 175 210 72 58 149 92 45 58 195 139 186 134 74 245 187 7 127 112 62 224 9 213 74 80 56 3 206 218 153 38 216 164 199 57 7 30 131 201 67 227 7 252 171 228 152 211 207 195 91 172 32 125 105 11 165 76 37 153 239 204 206 109 78 92 80 139 69 199 96 170 60 36 199 59 117 250 254 166 65 168 252 215 116 4 76 249 22 
67 98 129 91 25 47 111 213 32 243 208 233 126 83 136 128 195 171 78 254 16 165 248 120 126 11 249 34 189 217 40 6 252 151 195 252 9 229 179 214 186 88 17 219 139 132 234 119 136 90 63 48 110 181 80 220 13 47 27 17 240 57 31 222 64 107 101 184 230 24 193 183 240 38 86 3 54 28 88 137 61 125 22 242 91 85 55 213 28 17 67 43 229 147 102 4 215 134 113 121 
246 239 34 226 139 5 165 73 199 67 90 30 168 187 217 43 33 173 52 203 117 88 124 87 228 16 134 226 137 145 238 38 131 147 93 189 83 159 8 149 133 32 121 158 147 189 146 197 6 230 207 38 222 173 203 125 52 216 6 222 30 52 229 167 211 44 250 178 15 153 134 207 185 220 60 113 196 43 72 167 83 40 144 78 32 184 58 134 30 18 110 98 93 22 93 228 46 225 130 40 
137 158 39 223 171 158 44 255 3 172 4 185 79 154 0 172 3 32 208 88 234 231 71 213 15 224 94 196 222 218 124 135 135 84 244 173 163 143 207 176 26 232 205 227 68 101 166 166 78 142 149 220 224 126 23 159 252 57 241 50 42 64 112 54 210 99 244 33 233 215 176 237 207 136 171 13 120 176 10 165 203 169 146 250 71 0 105 40 236 202 28 19 89 59 230 159 50 116 48 36 
196 157 84 28 236 52 166 31 52 164 181 18 64 26 206 155 105 148 194 215 167 59 233 80 180 242 103 41 110 47 174 156 126 9 69 167 55 147 199 1 192 105 46 83 118 136 81 165 140 99 172 22 244 51 96 209 131 142 122 60 80 59 120 115 93 69 10 244 121 78 21 156 100 38 253 210 53 156 36 2 249 148 174 77 157 90 136 126 14 54 168 64 158 65 150 143 170 118 43 109 
121 12 152 214 104 4 171 245 68 254 78 152 248 80 81 226 104 89 105 63 156 19 120 157 33 232 14 218 172 199 48 120 1 118 89 152 19 42 191 38 109 85 215 81 208 191 27 62 30 216 11 253 118 77 114 188 161 217 234 58 173 94 162 127 215 52 95 203 175 192 193 204 118 73 200 19 203 8 150 201 135 126 119 158 229 11 30 3 230 187 50 153 243 99 9 233 196 237 179 85 
130 240 58 78 40 132 40 200 47 84 74 235 106 244 180 12 47 117 5 219 183 55 236 222 199 255 235 30 144 73 91 32 213 224 177 22 75 171 255 87 69 202 190 13 144 226 202 45 156 180 174 173 221 245 34 241 113 89 210 134 3 242 97 18 239 184 174 139 167 105 86 168 85 147 122 149 194 238 194 235 118 240 161 223 33 156 219 186 57 155 69 137 229 141 204 21 26 161 185 21 
3 99 52 163 167 214 6 237 198 195 163 45 3 80 103 219 73 212 32 32 103 234 205 143 253 197 165 16 156 195 91 28 41 68 161 48 130 188 235 123 100 7 117 218 141 253 135 7 29 71 248 14 66 113 241 0 20 63 243 234 190 69 27 8 223 178 165 55 48 109 176 169 102 99 64 220 90 31 137 205 103 155 107 105 19 85 57 68 242 166 190 141 200 79 130 66 238 85 73 160 
247 16 221 222 146 126 13 26 178 221 246 148 237 120 129 26 34 193 45 195 95 160 15 224 2 11 23 48 30 215 148 83 32 205 250 129 178 1 227 124 223 95 85 195 120 135 67 9 183 219 86 229 35 213 237 203 179 159 98 59 54 221 143 56 242 205 144 252 140 147 203 234 40 206 46 196 208 111 184 30 26 203 59 19 5 239 96 54 37 51 235 203 0 18 64 56 183 56 38 182 
233 221 204 76 212 82 10 254 189 217 232 66 146 186 100 179 207 147 112 9 158 240 59 73 66 27 177 57 181 54 69 23 144 134 238 138 44 18 111 217 7 109 220 91 105 208 90 47 71 107 38 44 103 253 217 27 197 163 234 36 54 237 116 135 75 55 57 141 120 55 232 189 117 210 155 82 229 52 164 237 54 31 137 136 200 131 77 171 81 80 241 226 128 136 59 110 224 152 182 59 
0 232 250 18 209 177 45 16 79 15 202 87 99 87 161 3 8 170 32 96 174 202 208 90 219 45 34 52 24 80 108 125 11 78 47 64 225 177 155 124 239 136 85 211 152 186 119 134 113 153 217 161 163 186 143 115 145 5 178 65 187 8 100 60 226 144 14 175 110 123 236 125 12 200 204 203 155 240 18 250 73 121 0 216 249 200 52 23 233 55 114 254 145 103 164 94 206 216 31 200 
63 182 40 253 239 246 183 166 53 162 123 69 217 113 29 108 120 155 201 45 42 235 235 209 97 22 54 204 21 75 235 241 30 11 88 227 225 59 159 204 46 120 184 81 105 170 185 197 232 220 85 156 157 75 163 35 245 188 33 111 255 19 249 147 209 34 131 23 40 191 10 165 78 25 211 4 65 76 91 75 17 50 225 78 138 124 36 93 19 2 110 46 214 88 209 23 33 162 177 128 
12 169 131 153 93 46 211 72 168 126 140 102 187 70 116 42 57 169 246 229 132 144 36 240 224 65 252 227 214 52 234 8 215 33 143 16 34 94 193 4 232 104 211 126 173 192 22 24 241 248 159 37 16 13 75 159 103 247 1 97 184 127 55 150 207 81 184 114 102 82 164 32 71 51 184 251 176 71 207 0 251 145 169 131 126 34 236 34 177 162 104 248 142 44 159 19 62 95 133 39 
241 177 132 131 14 7 195 69 140 131 168 202 159 157 156 105 152 118 14 97 6 104 186 15 34 226 43 101 106 115 126 151 139 36 106 23 132 11 125 196 9 29 168 95 37 68 254 62 36 178 185 68 176 116 126 16 58 74 226 117 156 182 44 42 252 83 92 195 243 104 109 224 238 189 216 165 213 173 89 106 235 125 245 179 246 236 60 98 159 11 204 43 27 79 22 73 11 229 101 111 
161 69 28 2 5 10 62 133 247 1 52 85 181 128 203 150 31 249 125 109 25 206 241 111 49 103 197 90 130 131 138 3 215 203 16 144 20 173 228 231 210 103 24 103 74 98 66 213 116 194 199 153 112 59 90 42 36 38 191 199 39 212 213 104 221 34 211 244 228 77 210 180 175 8 140 8 113 204 99 88 61 112 165 78 107 249 14 66 61 179 142 246 195 129 77 132 251 113 237 148 
61 147 15 210 214 12 24 160 244 102 53 7 194 42 156 244 211 177 21 161 196 55 185 81 29 49 250 64 121 224 228 218 231 39 163 43 143 154 68 151 153 215 192 203 74 25 54 243 112 10 120 45 1 217 201 62 255 141 229 133 158 153 66 45 169 176 150 166 34 218 153 85 41 200 12 138 30 100 250 179 10 173 62 208 59 194 69 39 47 60 21 57 180 193 142 244 76 215 240 42 
214 245 158 66 107 224 34 46 135 53 112 157 105 65 111 113 188 25 181 115 118 231 146 69 1 131 81 153 153 67 186 161 245 19 220 198 41 200 9 157 203 177 33 23 84 111 20 248 202 7 162 138 156 54 101 146 206 5 18 131 85 156 252 242 197 91 217 74 41 39 201 193 50 2 148 138 149 223 51 76 174 180 147 212 105 208 149 7 98 111 89 26 75 140 188 5 143 246 31 52 
52 166 107 128 6 80 81 95 242 56 215 87 176 71 16 185 165 94 42 139 7 234 175 198 66 185 4 194 154 12 54 238 18 237 245 196 141 194 225 252 52 35 5 0 23 233 161 161 23 135 45 8 3 158 154 239 1 203 219 17 48 196 164 222 139 163 114 116 17 129 203 203 35 71 199 47 45 193 207 244 136 244 165 101 159 178 164 253 81 107 74 218 151 70 243 110 103 112 231 120 
216 180 151 50 134 77 36 204 56 248 33 26 192 77 154 138 35 78 85 88 250 65 87 5 24 187 170 5 109 254 94 184 42 132 206 155 38 220 37 192 129 181 32 123 135 57 21 95 215 156 52 104 196 244 13 122 251 75 82 10 102 242 222 27 81 25 247 109 204 157 208 241 80 33 82 127 165 96 28 203 2 193 201 150 119 45 113 33 136 29 114 231 27 247 112 139 148 154 154 16 
62 55 47 72 237 100 65 143 225 107 186 185 238 232 156 72 218 147 141 226 7 90 146 3 81 179 27 240 58 48 64 236 69 83 74 173 159 165 117 17 4 2 244 14 225 55 54 231 182 207 104 166 191 41 59 198 211 206 231 48 140 2 112 105 168 153 39 9 175 12 117 111 214 204 212 179 36 214 30 220 211 136 10 83 249 179 243 152 104 241 220 52 210 57 178 239 49 176 208 66 
101 194 201 15 31 114 97 144 255 238 220 142 249 103 124 211 253 31 69 225 215 196 3 228 84 252 142 230 166 65 77 66 9 239 249 91 167 155 163 141 185 167 249 100 240 19 197 12 19 150 182 9 233 238 99 40 89 116 141 182 208 243 164 239 227 186 141 185 54 240 163 147 156 40 252 200 127 53 237 232 131 64 208 120 102 24 4 233 43 200 54 199 119 111 223 51 59 76 14 147 
147 25 104 136 238 154 109 33 112 117 253 78 148 68 26 151 22 233 239 13 16 33 17 129 99 93 6 245 88 205 4 80 135 189 250 86 248 36 213 214 137 122 252 37 143 203 28 204 192 10 43 126 81 167 167 77 91 99 31 29 131 100 245 88 218 132 98 227 2 239 186 81 147 237 242 87 188 252 95 128 46 34 192 34 53 129 127 145 40 44 52 146 4 57 107 19 84 24 167 25 
84 35 167 249 85 117 231 203 99 0 106 28 38 218 183 227 6 216 34 182 146 94 76 62 35 117 237 233 188 30 209 222 53 231 33 54 153 187 228 105 204 254 197 6 113 218 23 168 10 211 22 37 97 162 112 8 40 64 4 66 220 65 233 28 239 99 178 112 37 103 240 25 63 31 249 168 215 201 232 88 139 155 229 69 93 159 167 216 90 193 54 134 122 39 246 186 200 192 225 15 
194 32 20 195 3 139 141 105 31 79 51 221 207 87 22 125 78 254 249 150 2 33 14 29 95 120 0 160 9 38 54 123 56 142 87 79 97 105 9 176 19 21 255 30 31 48 50 55 251 102 110 42 104 135 17 111 83 221 16 182 249 188 58 29 79 90 193 165 161 225 246 231 121 195 84 3 194 78 192 218 45 128 15 125 212 28 201 228 30 253 44 228 226 171 116 91 207 44 90 174 
11 29 219 117 26 1 58 116 2 216 72 206 172 244 227 117 142 8 189 229 135 130 95 18 10 26 109 158 127 171 43 80 230 66 64 194 190 117 186 89 37 247 83 122 64 105 242 251 221 114 117 216 87 17 174 40 186 50 171 79 40 128 59 116 124 123 173 54 44 202 219 154 116 210 104 72 177 135 69 248 11 130 122 39 86 85 35 14 58 27 184 212 146 83 146 3 19 238 171 57 
46 166 166 32 55 146 15 159 198 247 227 82 94 98 83 56 76 243 197 172 210 252 28 151 133 203 57 227 244 195 193 51 138 178 33 209 182 94 208 231 72 97 212 243 31 55 136 117 1 150 156 234 202 253 93 254 201 144 55 254 103 35 120 140 9 149 86 150 56 95 52 137 0 108 33 193 149 44 162 69 61 228 177 177 105 72 5 115 37 75 148 58 179 54 87 172 115 247 77 88 
7 188 194 235 179 193 209 166 10 102 40 15 199 133 11 231 249 2 156 93 99 164 89 129 34 35 230 251 144 130 13 253 105 158 3 118 44 8 236 137 196 16 162 61 104 34 178 118 192 86 168 36 73 66 141 186 250 19 173 226 40 220 158 110 167 45 125 146 50 232 123 81 12 80 152 54 232 99 175 68 7 106 179 47 160 206 56 205 132 45 53 199 2 173 8 148 8 144 186 168 
140 9 133 232 42 78 147 98 15 239 9 59 21 102 68 232 47 239 98 161 8 154 5 19 231 158 83 86 214 240 66 30 3 20 18 53 102 52 27 41 164 111 200 66 52 115 228 182 192 78 20 32 206 129 165 47 159 86 136 155 87 116 155 94 95 177 43 32 8 39 182 243 113 138 245 64 170 185 25 1 25 146 86 49 29 11 158 129 242 126 175 77 213 69 79 206 104 135 214 145 
87 81 238 40 60 233 151 31 192 95 110 50 3 100 46 188 63 95 119 115 168 190 206 83 150 138 230 216 229 63 29 112 156 218 74 48 206 51 182 198 190 141 104 175 70 108 166 170 122 167 184 108 136 189 239 149 227 108 230 227 160 128 8 165 32 234 82 115 239 17 90 29 236 109 145 225 170 81 197 225 23 8 234 212 91 36 25 251 3 19 217 86 95 243 158 25 40 167 143 90 
102 43 140 12 145 36 112 48 247 188 147 74 93 172 148 18 233 154 85 109 64 166 70 155 235 64 231 178 255 60 136 75 253 40 83 123 247 221 141 5 244 84 25 205 150 187 62 144 250 200 170 211 224 78 182 25 12 14 235 89 236 207 197 175 122 177 184 82 100 190 113 198 106 194 94 83 8 92 112 181 86 86 32 21 44 50 176 56 137 5 179 247 54 137 207 239 166 109 194 121 
33 239 163 221 34 173 106 194 253 184 179 233 196 235 191 27 108 123 188 96 44 206 70 114 38 145 45 113 73 5 121 216 118 153 171 176 225 190 70 4 187 247 142 148 14 47 144 205 232 80 98 249 187 17 172 180 4 16 103 159 43 32 229 88 170 228 18 169 114 157 249 255 138 64 138 30 250 204 154 20 231 218 43 107 255 117 238 163 24 45 6 224 19 103 15 223 7 247 95 46 
156 241 139 157 180 187 45 240 81 103 229 214 179 64 158 31 192 163 19 41 169 17 145 155 203 129 254 86 211 251 26 169 38 98 5 196 128 146 2 112 218 171 122 253 146 171 68 123 198 67 35 45 0 227 144 58 25 24 186 166 87 23 204 129 217 154 110 94 53 234 142 7 95 61 96 111 205 67 163 232 216 252 39 150 102 204 140 36 198 209 76 181 219 116 252 30 125 62 206 82 
28 238 91 29 166 200 159 22 171 47 69 207 192 118 37 78 33 244 12 193 154 86 187 109 167 57 50 232 218 249 46 136 125 195 240 27 121 242 64 216 118 152 178 150 68 90 40 60 121 130 152 121 92 79 15 181 2 143 246 71 183 112 149 232 160 148 213 103 158 99 74 159 116 165 112 167 45 80 53 72 184 158 184 180 214 99 81 116 54 158 209 163 221 78 11 90 204 135 147 107 
221 196 197 82 239 127 9 104 66 255 86 90 36 114 245 218 206 59 136 148 137 141 74 100 21 57 152 198 74 196 177 142 0 189 186 217 45 77 5 67 77 16 146 90 7 35 214 83 13 127 188 252 68 133 234 242 37 217 69 20 99 116 183 55 205 245 48 28 119 56 234 159 20 42 242 48 167 220 228 135 91 214 245 148 174 173 55 181 213 216 25 44 92 191 45 208 14 21 47 2 
20 104 66 227 97 246 124 197 77 195 165 223 127 232 60 68 17 46 187 22 239 219 29 246 128 204 156 192 137 196 191 117 78 4 148 121 250 28 58 255 64 0 163 193 67 94 152 244 179 47 254 123 57 141 87 91 22 196 140 111 7 171 233 93 107 53 105 200 167 67 52 199 202 188 102 150 109 224 18 140 222 217 135 77 125 147 209 65 101 206 131 69 79 114 180 160 180 34 72 56 
50 19 113 6 49 31 116 199 198 21 177 244 216 84 222 245 129 152 147 146 182 19 11 170 43 192 41 39 113 244 185 49 97 54 249 162 190 80 87 186 22 166 125 21 233 199 139 217 14 66 163 52 81 187 171 6 97 61 78 218 234 210 68 27 254 81 212 133 185 120 151 217 37 58 126 213 91 90 22 99 235 57 11 17 126 237 236 193 186 146 45 161 102 229 114 94 207 15 11 149 
106 190 186 139 186 122 189 29 116 55 8 250 226 38 211 15 133 209 84 67 254 103 206 101 47 84 202 98 157 21 164 188 24 75 74 55 159 14 65 214 126 131 233 5 185 177 1 24 173 144 109 244 245 99 55 12 139 72 213 144 47 14 170 224 13 70 207 71 154 157 18 230 191 105 63 238 57 129 159 19 64 82 191 61 102 47 114 128 195 233 25 78 79 160 34 235 143 216 207 34 
116 207 57 55 128 15 148 28 42 63 180 231 132 62 208 132 27 115 135 167 30 94 32 5 195 115 22 196 231 41 212 48 245 78 189 175 8 157 111 247 84 146 73 126 194 125 43 50 218 214 124 107 230 208 114 30 84 48 141 83 93 96 101 217 228 191 166 56 161 60 89 231 126 35 101 191 65 54 85 176 108 0 91 179 97 102 149 255 202 127 144 128 56 166 11 133 10 205 253 185 
145 20 217 84 114 154 16 146 75 146 215 101 153 154 44 102 217 73 19 18 237 7 38 51 194 34 76 156 48 30 201 25 33 76 119 166 246 158 82 223 38 185 58 184 40 76 245 110 148 160 116 190 133 113 87 84 65 253 179 134 28 90 18 66 153 12 187 69 211 215 52 142 27 210 6 19 227 189 192 178 219 148 62 106 89 100 43 203 254 94 197 171 151 42 224 27 65 126 46 154 
209 238 189 136 114 6 193 221 144 150 148 26 245 77 251 128 50 137 171 128 65 110 12 116 104 54 60 140 96 199 87 11 183 139 246 179 115 124 245 125 248 126 122 142 44 242 50 103 216 136 222 92 82 84 15 71 89 37 45 125 64 18 190 1 79 85 229 248 102 93 41 93 227 30 120 246 198 172 108 135 19 8 205 69 120 57 86 141 48 159 188 214 39 133 236 229 95 245 148 64 
146 208 230 228 25 30 153 58 12 162 48 72 171 177 126 36 252 69 106 175 182 78 240 127 94 72 104 29 176 18 11 113 64 254 179 122 97 37 226 67 70 253 6 18 103 45 251 226 38 159 210 19 179 215 209 97 45 132 186 19 10 85 81 116 184 14 24 135 132 219 93 247 188 228 118 77 16 33 76 101 62 112 22 35 239 229 103 98 219 97 107 45 52 102 109 50 66 41 157 115 
75 233 17 63 181 128 9 97 110 56 119 151 140 223 191 70 49 30 187 107 178 6 2 213 248 236 106 146 38 119 203 167 123 247 6 4 123 248 70 182 73 24 134 95 88 21 84 227 66 42 212 101 248 156 7 114 28 144 77 123 171 31 41 137 223 172 69 44 84 117 182 180 105 105 128 164 233 58 93 100 235 178 186 54 246 74 3 107 105 249 32 215 26 74 64 130 62 177 213 160 
137 31 223 196 150 212 110 80 136 117 98 48 242 94 118 200 244 57 125 42 167 207 235 141 187 31 150 251 95 173 190 73 97 29 75 76 151 0 87 74 125 238 236 175 31 213 15 1 58 144 253 22 158 188 180 133 214 199 181 90 11 73 9 14 38 152 130 182 53 151 67 122 16 206 130 73 60 192 141 203 15 120 11 151 21 102 133 167 179 105 37 8 10 45 189 214 30 183 10 104 
56 62 59 200 137 61 173 102 15 198 249 13 189 25 48 21 214 117 101 219 154 46 108 110 36 0 226 139 147 163 109 204 104 159 69 28 47 98 244 110 98 144 90 175 138 154 243 248 167 146 93 9 210 62 20 243 33 107 129 20 203 131 51 72 140 98 108 94 75 102 223 201 251 197 184 152 191 36 221 169 81 101 115 25 164 192 165 254 200 21 160 89 15 128 226 70 110 47 181 118 
37 112 246 223 162 14 27 178 163 222 117 142 156 149 177 243 88 220 165 249 226 167 74 66 166 194 4 45 212 172 42 76 5 169 194 25 33 19 140 228 128 241 67 16 79 203 31 127 54 188 158 75 55 200 132 183 218 112 32 101 135 132 210 201 51 57 202 221 63 123 18 22 156 132 207 151 52 174 196 166 133 133 23 92 143 33 88 160 241 179 191 86 79 93 181 211 246 71 150 148 
195 239 182 48 65 192 162 140 17 231 168 78 143 98 153 148 178 89 205 229 52 178 104 104 243 224 220 83 152 251 175 167 118 22 127 27 181 205 67 85 175 29 211 96 154 121 171 91 104 25 235 110 235 150 163 3 61 180 78 50 95 126 156 124 32 153 117 189 64 210 58 92 214 249 78 197 239 242 213 25 120 9 187 35 94 134 248 143 243 129 19 86 148 248 229 125 137 31 160 255 
44 247 16 8 77 34 32 99 214 246 159 54 171 208 68 237 212 171 240 116 222 241 52 169 126 144 19 17 120 81 9 201 191 102 76 192 222 65 81 36 150 173 146 26 201 23 143 178 151 44 18 26 198 170 184 18 103 111 173 159 182 215 183 4 67 68 118 238 79 254 234 239 121 62 53 45 154 133 162 92 237 50 231 233 115 84 167 120 149 189 59 145 12 88 178 150 254 188 22 249 
105 0 241 171 197 209 16 216 229 195 135 209 31 229 246 74 172 152 10 197 81 161 70 78 63 124 3 105 57 243 181 73 244 240 113 66 195 144 172 129 116 120 70 251 116 108 199 163 58 30 232 224 227 67 85 62 26 236 177 100 59 20 218 70 184 117 111 155 187 161 144 146 13 77 229 192 54 240 226 93 230 141 73 177 147 204 240 201 100 80 196 110 78 69 14 88 125 56 245 158 
245 44 68 113 121 234 110 10 171 152 208 225 118 141 53 32 169 100 159 87 228 79 69 113 184 174 216 231 10 225 10 51 184 90 81 136 128 246 232 192 29 141 24 150 178 200 181 21 108 50 235 80 99 146 59 84 194 121 192 91 40 23 183 66 78 82 62 61 233 26 92 202 210 246 66 227 100 227 208 120 37 95 91 28 169 193 174 255 180 203 78 28 159 130 3 179 253 61 147 250 
126 253 209 16 19 252 214 50 82 137 143 49 29 18 120 35 126 131 166 89 214 207 11 146 55 203 246 110 14 67 217 38 5 72 79 121 39 199 93 234 69 96 248 40 153 116 200 206 170 128 44 76 111 170 126 37 183 154 152 92 201 139 151 40 71 162 223 239 88 126 95 114 5 16 22 70 228 173 213 131 244 97 71 192 201 135 48 62 233 150 242 99 117 62 85 106 12 180 135 90 
236 74 98 52 90 66 238 113 69 228 39 171 38 206 0 155 42 140 167 67 147 104 11 108 91 131 156 83 27 37 81 160 44 82 240 151 12 158 138 146 3 66 68 175 6 110 94 198 219 225 109 158 126 184 235 96 196 131 242 75 62 158 69 170 96 191 144 3 226 203 241 146 103 238 182 245 93 234 105 41 36 175 10 181 114 45 155 37 246 102 226 186 59 199 106 96 208 184 203 224 
166 114 43 87 185 16 5 231 242 233 41 172 76 30 4 242 55 111 34 165 58 83 241 8 219 71 200 170 195 102 39 151 30 58 65 203 65 210 183 236 143 20 167 56 157 85 229 188 148 39 136 198 215 114 169 158 230 199 103 113 131 240 46 142 19 204 58 213 70 90 86 107 250 19 234 179 93 125 52 122 82 253 214 114 23 236 145 226 36 238 80 155 86 127 104 46 76 207 30 92 
18 208 106 206 252 141 250 7 213 189 122 150 57 152 19 144 64 233 49 61 93 101 138 18 133 59 92 223 147 236 245 74 235 93 121 124 93 43 224 26 77 62 62 119 17 161 71 8 155 144 18 24 88 211 29 188 87 75 146 10 174 203 200 134 26 41 13 221 229 148 163 214 13 39 8 133 162 191 122 194 112 10 187 217 222 225 18 131 22 216 146 21 102 19 158 248 230 91 173 89 
92 112 75 33 92 161 97 40 180 155 181 165 7 127 180 234 183 55 112 78 8 9 229 106 131 108 128 136 153 27 226 88 137 105 225 229 132 212 207 200 14 220 255 155 167 22 134 177 171 124 63 4 119 7 18 111 205 128 117 30 122 147 50 66 53 37 107 9 203 231 220 205 121 43 97 140 153 247 184 152 130 88 135 143 169 249 161 142 12 244 133 162 208 232 40 127 40 76 244 117 
122 3 16 159 189 48 226 94 38 75 210 5 3 117 81 214 231 8 26 46 7 115 184 252 228 69 73 119 42 135 129 17 216 79 242 166 162 146 138 250 148 58 93 98 247 120 164 193 120 92 6 182 135 163 23 20 254 208 31 147 3 126 28 197 47 244 10 75 240 250 97 72 43 235 224 22 38 12 137 56 166 28 237 144 84 44 169 210 101 177 49 57 122 216 204 121 197 25 224 244 
110 15 112 48 53 135 227 137 88 215 7 35 183 113 85 35 54 183 119 31 99 17 7 210 89 61 154 21 228 231 253 11 229 122 190 155 248 53 238 35 85 129 38 106 244 130 200 215 245 236 135 225 62 24 42 199 102 87 140 129 210 134 232 246 29 226 83 111 189 30 138 76 228 179 238 246 165 120 205 20 88 114 227 2 63 237 33 126 106 203 173 165 215 29 41 31 222 240 56 150 
204 105 62 108 207 21 104 173 18 122 237 66 40 242 147 104 174 185 116 97 44 68 2 105 61 212 73 236 240 76 116 246 109 63 147 235 220 78 155 120 130 177 174 201 45 19 157 253 211 163 172 215 118 104 149 182 74 212 207 199 26 157 15 121 232 200 16 49 212 7 144 64 63 68 155 18 47 126 11 167 245 212 80 71 14 223 109 114 72 69 67 23 37 139 18 6 132 43 61 166 
126 231 77 235 143 92 57 131 246 218 229 80 94 115 232 27 189 82 146 135 125 79 46 67 218 192 132 132 139 145 162 179 164 151 220 98 187 33 18 133 73 208 49 223 84 169 252 186 75 105 13 219 50 24 22 181 254 225 109 221 67 33 200 190 12 190 69 142 10 186 173 129 242 8 249 60 32 158 21 140 128 203 229 88 174 203 134 212 92 153 214 248 245 4 54 49 127 5 142 86 
198 80 146 221 183 41 68 79 10 121 186 249 36 33 34 229 59 142 3 8 187 141 198 189 232 97 116 114 197 20 193 161 53 10 74 3 97 220 27 0 89 99 116 105 254 18 205 105 31 137 23 185 226 104 69 20 102 97 11 235 166 146 229 89 161 17 92 89 184 200 133 55 87 131 202 68 215 71 236 206 163 230 73 79 154 208 91 229 181 44 130 2 234 39 3 101 80 140 80 73 
131 150 138 220 74 2 68 242 119 103 138 251 15 202 33 50 171 109 17 24 30 233 97 33 88 124 34 173 139 164 175 57 140 237 50 215 123 7 106 219 166 27 172 216 171 95 40 203 221 233 110 149 233 193 49 175 186 57 74 25 153 129 255 147 153 118 134 16 50 187 197 104 44 11 92 77 190 205 229 128 248 233 122 68 94 219 120 20 214 6 131 145 196 74 203 190 115 216 141 111 
183 69 220 255 208 222 161 66 146 60 225 186 195 24 62 14 197 96 193 183 116 137 214 253 82 40 152 34 226 188 79 221 81 206 55 10 91 61 132 159 109 211 162 226 7 27 193 217 101 119 145 2 94 109 74 69 140 66 240 39 173 202 213 64 73 126 95 239 150 207 11 76 152 186 178 94 140 157 12 143 135 73 114 92 91 88 232 81 186 193 90 53 158 169 38 130 231 124 219 24 
70 61 64 49 91 26 153 152 26 68 37 22 115 253 235 45 50 243 183 9 36 204 95 180 123 2 74 137 115 241 51 235 54 46 43 55 253 27 221 246 121 184 22 88 113 188 133 222 172 229 191 86 17 140 133 12 13 124 74 63 53 4 240 210 45 75 211 68 200 228 8 226 112 162 231 59 201 174 198 213 145 214 8 30 203 40 87 165 28 192 45 138 117 222 153 52 242 60 64 65 
2 158 162 195 201 170 158 169 194 250 56 123 169 112 155 75 152 201 90 232 112 117 251 84 122 166 182 120 78 168 122 23 244 112 49 1 74 119 69 137 165 201 99 56 187 88 127 195 193 151 24 59 208 68 189 132 141 133 208 8 9 55 138 172 230 131 63 4 188 178 227 194 186 66 206 117 145 57 188 112 141 185 24 7 5 213 122 2 246 163 110 75 235 146 119 234 32 254 83 51 
230 2 129 62 73 142 1 152 241 185 91 56 70 88 226 181 216 207 58 182 253 39 24 169 188 97 73 184 233 10 246 248 146 16 38 228 154 212 132 11 164 128 99 5 50 155 255 171 14 219 5 136 234 58 86 138 67 75 8 253 139 207 174 186 134 132 218 156 245 61 224 52 114 55 220 190 155 171 246 83 114 160 228 96 4 3 177 86 73 249 189 163 76 116 6 226 139 5 165 78 
161 241 156 125 34 134 206 75 199 175 79 20 203 199 222 38 148 171 176 117 150 19 112 145 117 34 131 214 105 59 144 226 231 23 64 77 126 20 66 148 255 208 147 85 224 247 252 194 226 89 220 80 242 64 39 175 77 0 175 255 232 207 162 65 15 215 84 11 76 138 63 128 138 54 73 128 122 217 69 28 54 54 187 77 37 40 236 229 30 55 17 197 208 105 228 81 97 90 97 33 
85 143 206 249 178 8 249 252 97 20 193 28 216 106 215 213 246 116 198 27 46 238 49 145 232 176 92 251 36 200 239 246 97 204 246 231 189 111 43 49 93 81 120 171 15 28 184 81 46 204 190 57 199 78 152 201 249 77 20 40 162 73 132 242 56 233 191 48 244 146 104 135 54 56 115 175 37 116 228 39 149 215 218 39 47 127 205 215 203 231 20 190 33 3 170 125 161 141 49 189 
159 154 55 102 179 112 185 17 96 155 229 193 243 62 36 205 174 168 88 33 38 39 98 167 234 33 232 255 101 96 85 118 6 174 33 54 158 162 82 186 9 185 67 133 16 168 164 20 142 241 194 17 210 181 8 201 69 201 198 224 76 12 50 67 112 247 173 95 189 117 71 145 103 245 132 221 180 190 97 226 21 131 146 13 150 56 14 14 121 36 205 136 30 54 208 13 39 156 99 73 
217 146 159 125 196 120 50 48 166 40 99 33 141 134 80 127 60 89 122 92 208 89 132 96 163 136 56 186 113 198 203 92 185 160 98 104 102 106 212 229 175 141 178 183 60 33 133 206 138 191 86 157 144 144 116 206 163 170 113 52 151 157 110 1 39 72 152 57 150 242 243 102 151 150 87 142 107 125 184 98 73 18 170 184 2 243 35 59 229 68 131 97 224 72 211 158 233 50 74 216 
156 56 22 26 38 234 89 140 97 194 113 163 64 252 124 149 110 167 27 16 50 253 119 43 150 240 130 157 200 5 128 44 192 101 197 105 35 50 192 155 104 23 56 249 57 35 214 28 28 215 228 179 82 125 84 121 255 188 4 100 140 106 64 31 74 161 137 187 88 21 148 162 198 164 150 204 250 47 191 53 83 169 4 142 13 109 34 50 101 213 224 93 253 8 148 152 129 19 232 120 
139 60 222 136 196 146 18 132 77 201 64 200 93 69 5 7 43 117 234 64 14 98 158 238 226 136 131 128 175 228 108 8 133 78 166 55 170 9 53 137 248 153 95 189 128 212 111 136 115 60 179 138 67 140 199 129 5 145 21 189 26 59 157 212 14 244 242 150 192 48 133 67 195 70 38 252 5 126 200 120 174 107 133 248 75 123 226 125 44 204 83 56 10 65 2 66 238 214 204 141 
77 48 140 27 120 121 157 109 52 106 154 63 164 169 104 114 112 86 119 74 32 224 68 217 201 30 35 187 236 155 59 4 155 49 210 119 221 217 203 249 84 193 108 69 29 159 101 224 248 70 14 80 169 118 241 137 158 249 136 168 209 235 72 227 240 90 222 192 188 15 184 134 175 170 199 241 225 245 131 42 44 114 48 246 142 54 96 46 208 250 186 111 101 112 249 18 149 211 56 95 
219 194 108 253 139 78 50 173 183 82 203 57 84 3 100 166 153 199 155 177 168 75 64 122 112 207 88 122 210 197 104 186 2 155 240 71 49 213 53 225 105 94 67 243 184 32 51 200 144 210 170 251 110 17 162 47 186 179 109 1 238 88 246 59 251 65 75 74 233 102 88 243 189 194 245 65 159 242 36 194 60 254 147 243 106 119 105 248 10 194 63 144 51 179 107 73 141 94 133 240 
250 41 36 76 124 38 233 12 83 160 191 253 101 244 96 128 227 162 28 60 42 164 214 16 231 255 79 75 127 151 167 32 174 71 32 84 110 49 38 58 26 83 140 225 211 92 25 140 35 189 67 98 224 2 58 103 83 99 40 171 154 150 183 194 75 232 213 115 90 140 180 180 61 51 20 215 77 221 196 254 112 238 102 212 245 132 116 127 191 8 128 208 166 3 192 189 26 51 201 18 
9 223 155 99 3 103 222 69 157 31 107 190 19 93 14 249 49 209 138 62 115 21 222 34 107 133 199 251 99 81 134 151 68 209 227 46 182 24 114 148 137 203 21 179 84 52 194 57 91 146 135 142 182 179 203 9 176 197 214 99 110 106 148 108 209 10 149 252 156 109 89 45 218 137 203 199 122 152 11 252 61 110 112 86 210 10 206 237 63 107 244 221 130 165 121 247 120 51 185 183 
255 143 26 118 87 0 148 225 207 179 112 170 157 14 79 126 13 65 111 54 222 30 42 81 232 42 191 162 3 244 85 70 37 165 61 217 202 217 120 233 153 173 121 171 68 25 43 237 176 129 54 76 86 134 127 167 233 34 237 212 56 244 115 145 87 216 75 189 249 187 127 200 33 174 174 104 250 56 13 141 2 241 172 152 110 76 251 199 203 181 140 244 225 220 26 128 220 80 203 138 
174 79 178 100 175 221 152 71 134 19 252 69 77 186 88 128 240 24 166 154 214 10 35 108 196 83 83 251 254 52 69 167 175 61 24 166 138 98 190 177 178 81 0 253 215 3 194 109 162 145 137 6 84 74 58 163 170 2 37 234 3 172 65 126 196 44 185 118 252 102 168 15 68 155 33 157 234 245 115 200 78 96 171 244 139 156 90 1 90 144 152 53 52 226 72 118 183 196 158 189 
75 17 223 199 5 152 104 14 204 184 242 247 186 45 20 77 196 41 9 238 158 166 180 196 217 251 225 247 79 174 206 97 192 138 234 67 189 241 220 54 197 115 199 100 175 159 205 247 71 24 210 210 60 236 130 127 58 34 149 105 83 146 81 76 163 250 81 233 52 77 134 254 31 78 123 117 244 94 221 220 92 146 58 21 253 9 9 79 158 125 235 53 140 23 48 100 60 136 157 35 
49 85 108 78 32 114 149 148 83 19 76 227 75 191 203 31 169 166 81 26 79 52 107 193 194 230 114 147 210 93 85 88 126 177 152 15 18 7 157 40 146 102 35 243 91 198 12 89 8 106 99 202 147 112 157 118 188 167 31 192 175 160 1 239 225 8 18 39 59 52 28 153 122 254 105 246 214 208 133 41 225 254 70 69 179 89 10 188 68 1 64 211 25 122 42 82 35 2 224 128 
228 34 153 78 211 132 38 211 2 4 191 248 254 9 2 117 246 22 57 252 32 156 220 179 89 19 87 232 12 72 12 1 84 249 156 177 101 159 98 114 40 139 65 47 37 52 160 64 166 208 178 156 25 33 251 74 183 146 16 25 99 130 158 145 213 224 173 41 247 248 38 187 143 140 147 52 31 39 39 144 9 174 254 6 247 56 165 127 122 31 221 77 242 88 156 26 173 255 85 30 
83 54 121 150 129 48 62 113 180 137 159 76 105 217 164 160 130 136 227 58 236 228 71 236 127 112 16 131 37 127 27 248 63 2 100 235 68 159 201 76 171 3 17 92 12 120 44 212 130 186 188 99 83 6 213 94 211 117 1 180 133 136 136 32 132 4 238 162 33 0 188 47 206 60 132 168 59 180 31 9 190 117 57 227 248 176 16 12 182 13 120 148 21 65 35 252 234 227 31 163 
96 123 160 129 227 221 0 23 61 181 4 166 255 98 97 160 35 8 126 92 239 224 124 13 29 211 116 245 56 72 255 214 73 58 252 170 179 141 141 147 92 162 99 21 13 41 60 131 28 54 169 183 72 151 21 6 228 102 3 116 56 218 151 35 36 98 88 18 6 245 52 4 222 163 197 189 176 113 210 116 42 99 25 134 135 218 75 104 179 32 89 223 176 66 238 115 56 30 60 33 
164 188 252 80 12 226 176 6 176 226 44 92 150 183 84 47 117 80 39 25 210 44 253 159 105 39 12 172 206 148 49 63 84 139 238 96 46 132 175 88 212 37 81 33 169 89 228 28 218 162 176 2 137 176 119 29 43 50 250 184 46 236 190 212 223 10 16 28 140 180 71 27 229 226 73 173 168 114 81 179 126 120 239 11 32 213 80 192 189 11 191 125 160 79 108 72 14 224 108 108 
109 152 2 183 172 192 29 230 222 41 33 94 40 120 234 29 222 194 15 239 233 89 99 229 108 229 194 3 167 182 10 57 27 88 103 149 238 104 212 182 146 167 222 132 162 77 171 30 12 160 60 20 117 196 239 215 217 213 72 109 114 51 240 105 220 29 254 27 118 130 118 4 11 19 15 140 178 157 58 248 242 150 95 150 42 246 106 58 48 72 134 238 57 0 40 230 249 15 80 178 
11 181 12 183 146 150 61 224 33 17 157 145 216 205 1 221 208 148 220 248 186 101 5 239 194 196 186 150 186 85 228 194 116 169 156 185 111 88 239 231 182 80 222 211 6 108 169 81 47 73 78 248 188 85 76 214 214 40 172 99 102 24 66 180 122 7 49 241 234 128 173 9 59 3 5 164 195 156 224 90 14 186 198 34 129 63 227 13 61 212 8 52 71 127 243 238 229 119 208 71 
75 55 0 174 118 209 24 238 89 133 45 96 55 146 79 94 80 76 83 250 191 111 214 240 163 179 126 218 125 160 131 163 217 164 110 62 49 99 33 152 14 78 24 203 112 119 238 148 112 163 35 7 36 161 28 129 195 219 107 223 9 43 81 237 221 240 129 33 50 96 39 138 43 32 41 3 130 18 173 172 42 110 219 155 51 20 228 206 239 32 67 100 83 191 67 13 159 66 193 192 
66 113 51 172 247 34 233 112 53 10 147 142 198 210 4 29 181 109 53 191 110 170 141 211 33 5 95 236 103 195 181 129 40 62 76 230 188 125 223 122 80 7 168 35 140 249 37 247 115 87 24 60 138 160 209 147 60 165 175 112 125 154 229 205 174 110 122 32 192 88 148 138 157 179 245 81 195 11 198 144 50 120 147 45 137 42 152 12 108 70 59 130 40 241 217 13 154 169 197 66 
77 220 142 6 226 179 129 1 181 47 111 80 189 120 177 122 180 114 104 166 120 144 9 11 178 237 26 167 181 153 54 52 169 48 87 88 232 178 85 28 168 142 169 159 219 0 119 12 83 157 204 201 42 45 36 241 97 184 47 5 199 228 212 222 28 126 119 230 119 86 119 136 229 80 251 229 83 184 239 201 174 214 73 221 72 194 145 30 126 122 160 141 152 50 168 40 240 235 116 26 
87 71 241 47 180 156 238 138 238 71 32 154 12 67 105 74 155 250 89 120 80 90 246 169 239 44 184 251 107 161 216 91 79 46 203 247 92 154 9 246 116 86 18 103 183 12 179 120 235 122 133 233 33 129 184 192 149 121 14 61 215 200 42 16 40 179 11 202 39 116 212 146 173 140 206 25 245 90 175 208 0 237 29 88 55 23 110 57 83 194 178 216 122 135 243 163 170 125 187 143 
91 79 215 196 96 146 91 150 15 85 230 184 161 249 39 172 220 67 160 126 239 175 170 178 157 7 186 123 157 53 226 46 65 86 155 245 87 15 193 200 77 36 223 153 152 70 173 207 85 45 215 246 49 231 0 181 135 112 7 0 201 130 137 142 33 174 167 142 88 172 9 150 246 240 34 220 171 125 182 168 237 254 154 9 227 19 188 200 130 233 99 154 246 13 183 153 67 130 131 245 
44 17 58 231 84 224 56 231 163 70 75 31 235 222 114 31 203 218 228 210 212 154 84 177 235 126 116 54 238 248 184 148 155 229 92 165 173 29 168 36 71 72 115 28 150 244 230 160 179 229 130 189 198 172 100 173 113 124 200 77 108 56 205 210 108 208 120 183 74 206 250 249 97 44 54 135 56 105 126 244 97 220 157 112 160 71 27 246 80 175 188 199 3 107 74 22 105 124 148 5 
115 28 183 208 183 153 156 72 23 100 194 132 157 101 62 211 170 146 0 244 80 192 87 138 252 185 184 202 88 142 187 119 111 47 102 16 19 56 174 72 123 14 59 182 49 43 108 206 44 182 155 16 56 87 162 127 159 73 157 85 2 177 242 245 136 46 143 33 59 177 115 109 174 143 112 243 227 212 47 73 109 219 116 176 210 27 163 142 51 68 132 31 47 139 67 103 4 65 187 107 
247 171 243 160 247 14 233 164 125 9 143 44 182 39 20 62 228 181 100 160 2 209 242 144 166 196 181 181 44 146 112 86 17 207 55 202 157 179 47 47 197 113 149 95 79 197 2 32 55 204 237 155 82 25 113 16 49 5 80 199 72 70 57 74 79 196 70 209 233 168 201 254 132 181 72 202 128 219 198 192 147 9 68 105 108 68 136 7 150 246 29 133 160 136 155 175 123 50 41 159 
35 18 63 119 129 124 177 86 145 146 233 132 192 20 115 240 152 121 192 221 158 62 35 216 123 126 32 237 91 195 230 26 147 28 26 4 134 111 214 233 201 17 242 214 133 148 130 26 29 224 159 250 17 133 107 166 35 80 79 108 184 29 135 44 128 235 225 12 89 54 193 108 113 129 105 29 171 50 119 205 69 162 175 198 183 117 251 217 222 39 176 148 89 232 19 188 52 170 28 247 
195 120 122 200 209 9 214 192 251 149 92 243 86 231 120 170 88 180 221 87 245 43 204 206 8 205 147 177 245 127 84 44 140 221 7 227 49 210 194 41 58 101 56 115 153 214 129 12 187 234 25 10 176 131 42 128 139 115 14 245 12 146 15 21 124 15 114 167 217 3 181 191 51 76 20 53 86 152 82 85 169 192 181 216 86 88 83 20 171 132 140 111 193 12 216 25 91 179 195 251 
16 197 53 234 173 240 247 33 213 84 115 238 234 221 187 171 49 209 205 240 48 165 22 7 91 21 52 160 240 116 0 198 32 64 204 18 111 249 233 31 93 51 109 61 70 235 50 106 135 23 34 126 226 128 178 165 36 212 173 18 4 247 51 242 79 155 1 159 66 16 243 23 55 93 198 172 133 143 35 253 161 81 217 36 137 189 107 49 98 114 202 216 95 231 99 102 230 255 92 249 
