P2
#imagem_intervals.pgm
60 100
255
38 7 3 13 23 20 10 13 20 0 30 30 49 10 28 24 2 12 2 31 9 54 27 9 19 4 54 9 41 26 1 27 46 12 24 40 12 2 11 44 21 44 46 23 22 42 18 9 14 40 52 42 24 40 20 33 44 24 49 18 
53 37 52 29 23 24 2 37 31 40 54 54 16 48 54 3 11 27 28 31 38 5 32 2 16 52 19 22 12 47 47 19 12 37 54 39 25 50 1 10 0 13 19 42 22 13 52 2 39 29 41 24 11 37 44 31 3 12 0 2 
18 27 17 26 23 27 17 42 51 26 5 0 22 10 2 7 38 42 34 3 43 33 43 53 28 24 26 40 14 23 51 35 39 51 29 32 22 55 36 19 21 32 30 55 49 37 51 54 18 47 46 40 14 6 25 38 10 28 48 31 
20 30 21 18 43 15 4 45 24 31 39 53 17 5 5 15 42 24 38 47 39 29 26 23 1 44 35 43 21 51 0 10 43 39 20 55 36 40 14 8 37 5 50 7 36 0 8 8 49 3 19 42 39 35 29 41 51 19 1 11 
20 44 49 26 35 12 9 25 53 37 36 11 14 32 45 48 33 33 32 9 53 29 43 54 18 41 7 38 29 4 35 7 48 48 27 31 29 29 44 26 36 23 44 4 11 1 24 49 46 49 30 27 31 38 44 13 47 31 0 30 
38 54 17 39 32 38 22 0 17 16 30 0 2 52 7 4 27 46 3 2 43 31 16 46 47 54 15 45 47 14 32 32 55 34 19 27 45 54 18 31 14 55 21 12 14 38 6 51 7 9 39 35 41 51 8 34 4 30 37 55 
10 53 31 30 0 14 18 27 46 32 47 50 45 50 51 6 32 53 32 49 47 50 50 20 48 6 4 31 38 53 20 51 55 37 13 22 8 37 28 15 28 45 53 26 29 55 6 30 34 31 4 29 49 40 37 20 55 31 22 4 
46 43 54 40 46 13 50 1 8 36 42 22 38 44 4 47 31 16 32 11 2 6 12 9 24 19 33 12 47 46 29 27 20 1 2 24 17 53 22 14 15 13 21 17 53 46 29 1 10 29 24 15 0 41 39 35 34 3 52 45 
39 44 41 10 47 22 7 9 21 53 18 23 46 23 11 32 25 25 30 23 55 52 14 40 45 17 21 20 8 41 0 28 48 8 25 18 8 10 7 20 20 38 28 18 28 26 46 19 25 39 32 10 46 15 9 31 25 13 46 11 
25 4 11 4 17 2 47 50 54 29 17 1 46 31 30 8 2 6 53 49 38 0 4 19 38 29 51 52 27 45 49 2 6 28 7 36 51 34 34 4 34 8 45 40 43 40 30 33 48 36 7 20 55 42 16 40 7 39 35 22 
19 41 25 31 46 33 3 51 54 9 2 30 51 18 3 0 2 26 54 29 21 52 22 42 37 47 54 25 43 44 9 7 27 34 19 36 2 12 38 34 49 14 32 9 26 44 51 11 11 28 12 20 25 44 17 44 55 47 13 0 
39 12 45 13 48 23 16 47 49 21 26 17 53 42 50 37 23 37 5 55 39 22 26 53 6 22 40 34 54 0 52 11 6 23 24 41 13 49 24 41 12 10 54 32 1 3 17 42 17 53 41 13 54 9 15 25 33 1 27 44 
18 12 29 27 22 14 8 43 8 38 27 33 3 5 42 54 30 28 37 0 33 44 16 21 47 35 11 41 37 54 26 9 34 2 39 24 31 8 54 3 9 41 34 49 29 21 38 45 11 50 15 30 22 35 0 22 3 55 29 26 
8 36 29 50 15 35 50 26 42 21 18 24 25 39 43 39 18 34 2 3 9 47 5 53 49 49 26 18 9 42 47 23 10 51 36 47 24 54 46 41 7 46 5 27 48 10 0 12 4 45 47 17 24 34 25 22 25 14 55 47 
34 14 48 7 20 35 39 0 54 27 11 36 29 42 45 53 5 9 15 40 0 37 35 23 39 51 25 6 15 35 5 6 30 10 0 9 30 37 54 5 32 26 33 5 45 41 28 11 41 28 50 51 33 19 23 20 46 19 23 0 
11 55 14 23 36 7 48 46 23 16 2 46 31 28 8 10 14 20 32 40 3 11 39 36 21 5 35 50 55 0 17 11 28 34 16 41 44 27 14 30 24 36 17 42 26 24 8 44 25 2 11 43 4 39 0 44 20 14 24 7 
15 37 1 22 50 29 21 14 23 48 35 25 24 26 37 18 10 7 41 42 53 3 4 43 43 24 12 52 47 27 12 20 41 55 14 26 31 23 28 36 45 54 47 46 48 9 20 54 31 23 36 46 51 16 2 25 41 44 11 42 
6 21 25 33 2 0 48 7 16 48 53 12 45 52 35 23 15 33 24 54 8 51 47 30 51 40 47 13 14 45 21 38 16 45 37 54 37 23 39 45 48 32 40 6 24 18 37 26 46 43 7 33 14 32 4 35 12 3 50 39 
41 10 50 2 14 43 2 10 48 45 35 11 5 32 12 18 5 0 47 32 21 38 35 49 16 16 17 13 7 33 35 55 3 4 18 20 15 37 7 22 43 9 52 34 39 47 27 7 21 55 55 33 51 34 19 44 47 25 40 4 
27 3 26 28 51 34 53 30 12 29 28 51 0 11 10 19 23 38 5 22 16 54 55 12 32 0 15 27 2 6 55 7 49 24 7 15 50 20 51 54 44 50 48 38 28 27 37 28 29 28 48 0 37 21 38 3 6 23 54 38 
69 90 95 46 92 60 51 56 83 79 85 87 47 74 98 66 54 98 75 89 70 56 86 65 45 47 73 45 60 64 82 85 88 105 97 53 103 47 48 57 89 49 91 50 77 92 98 101 81 68 96 57 102 85 90 77 68 55 88 45 
105 83 56 100 48 88 105 46 66 96 92 64 99 61 97 76 99 55 66 54 80 80 100 93 81 88 52 56 81 90 62 90 72 48 101 75 87 88 73 98 70 72 69 56 48 76 70 86 83 52 98 97 103 46 46 105 77 62 63 86 
70 82 54 81 62 72 66 57 59 61 45 103 79 85 81 94 65 53 100 63 56 62 98 81 72 62 45 62 48 61 72 96 85 84 103 54 70 54 96 50 48 96 98 86 93 66 60 76 68 91 92 54 73 68 100 69 105 78 85 56 
100 51 48 51 53 53 95 84 49 84 100 82 104 93 104 95 101 69 69 93 78 82 96 82 85 94 70 98 70 87 55 80 62 102 72 53 70 99 46 76 49 101 52 55 91 85 85 76 66 66 89 69 98 105 66 55 49 100 52 67 
46 105 93 95 45 63 62 52 49 86 46 77 86 59 65 82 55 62 96 79 84 105 82 66 95 68 62 59 74 78 70 67 48 91 95 55 96 56 99 79 97 90 61 105 76 93 99 47 67 98 88 92 103 52 79 99 97 77 49 93 
100 68 56 74 68 91 51 65 76 96 97 65 52 53 45 99 79 98 73 45 87 53 76 84 60 68 49 61 92 98 84 76 77 75 47 73 45 58 78 61 68 99 89 94 67 67 46 46 105 73 90 73 86 79 69 48 61 95 97 81 
85 80 71 98 54 97 72 84 56 65 52 100 68 99 49 88 54 70 59 100 47 59 79 73 82 76 81 55 76 97 58 81 99 80 77 70 55 86 65 69 75 105 101 98 72 78 79 74 90 84 100 91 82 85 82 69 70 81 73 100 
53 54 67 75 50 63 66 73 52 75 79 64 54 64 100 95 73 58 81 56 61 71 103 92 89 67 74 94 81 82 55 104 69 79 59 86 80 52 104 72 52 96 97 64 78 95 65 98 78 67 56 52 69 100 72 75 73 69 71 80 
45 60 71 52 46 99 46 98 46 59 54 69 104 67 97 59 46 79 103 49 65 95 99 79 94 102 84 65 81 87 97 76 100 82 59 52 85 71 56 98 64 94 103 59 78 47 84 96 78 86 69 59 78 75 66 77 51 70 71 88 
95 92 93 66 68 47 49 50 93 49 90 49 59 77 52 80 55 93 46 84 75 74 67 52 58 74 73 93 69 104 57 79 72 85 55 68 48 89 72 104 84 91 51 95 89 62 77 85 65 47 98 103 103 48 73 59 82 66 48 59 
62 104 46 66 80 103 95 59 53 60 98 80 61 76 83 68 62 69 70 84 91 45 55 75 87 78 82 104 77 90 104 85 56 75 71 87 73 66 47 50 73 52 85 90 52 65 69 51 60 57 74 54 85 47 103 71 68 52 55 62 
94 98 47 85 101 56 65 50 69 99 72 70 95 68 94 54 104 48 60 103 100 53 102 46 66 105 56 96 54 67 81 50 73 56 100 51 72 57 61 87 57 55 54 61 83 105 61 53 59 93 50 45 66 96 96 69 72 85 99 50 
60 80 48 94 62 73 101 99 68 85 70 86 104 78 62 94 59 49 46 59 88 75 89 49 47 104 68 56 93 105 57 104 104 82 94 72 84 95 89 102 99 57 64 81 87 69 101 91 94 98 68 47 68 88 81 49 85 96 81 57 
94 49 51 77 67 68 79 73 51 83 84 56 64 96 55 103 81 47 59 66 51 85 73 80 55 98 104 100 72 58 75 57 100 54 100 92 75 86 77 66 60 91 64 49 80 47 85 57 48 51 59 56 87 72 79 52 61 82 80 105 
72 86 82 50 87 100 80 51 55 49 58 73 58 48 45 71 62 99 55 98 65 77 50 94 48 81 84 102 45 94 50 99 73 61 92 51 66 88 81 57 46 72 47 65 88 46 79 76 49 104 104 51 102 50 66 58 77 59 63 84 
74 69 96 51 76 45 86 96 59 78 100 97 61 93 85 83 99 70 81 48 61 48 94 102 85 104 102 75 94 68 64 67 60 66 73 47 71 59 64 80 101 95 104 73 99 63 61 103 47 56 89 96 81 90 63 77 61 58 61 64 
94 60 83 102 105 59 46 100 103 100 45 93 55 57 51 66 51 49 49 57 49 90 68 92 63 52 83 58 63 76 81 104 104 63 45 56 45 62 80 104 76 66 61 84 74 79 66 88 70 100 49 51 97 93 99 56 86 61 103 61 
49 53 51 86 104 48 57 60 78 56 78 52 70 82 69 51 95 84 68 103 60 47 60 83 47 67 53 47 68 77 80 49 77 100 81 69 63 47 73 57 86 73 54 76 46 101 89 57 85 71 70 95 101 88 53 77 77 83 91 65 
71 61 65 102 101 89 48 79 66 72 69 60 87 71 61 98 76 105 50 52 53 51 101 88 69 71 79 75 89 65 94 88 99 50 86 91 81 75 50 85 79 99 59 92 68 88 104 50 54 66 69 49 62 52 73 49 78 77 105 103 
63 74 81 60 77 46 91 100 57 82 57 95 78 95 77 97 93 48 103 50 98 102 75 72 59 103 53 45 50 105 81 50 47 64 95 61 94 79 47 93 94 58 94 91 53 77 98 100 53 57 101 49 46 91 95 75 57 65 46 56 
153 133 148 152 117 126 121 137 100 148 123 134 123 146 130 101 148 117 155 149 108 108 99 137 131 147 96 142 97 145 108 119 133 134 142 105 134 155 115 129 128 121 146 100 96 110 140 121 155 98 100 141 132 109 114 128 105 126 137 142 
108 142 119 133 152 155 101 106 127 139 131 135 141 113 101 149 140 99 112 109 131 111 109 101 138 144 122 154 115 110 123 100 126 148 106 150 142 104 146 97 151 97 139 148 137 111 148 105 118 115 132 143 136 105 145 114 136 106 126 148 
128 133 141 126 154 142 112 113 117 138 142 144 131 97 128 137 125 145 130 150 154 103 115 124 130 148 126 127 122 106 137 135 135 130 137 128 131 140 121 151 105 110 96 100 127 116 106 99 147 149 134 113 114 95 118 132 95 114 97 130 
141 137 96 113 137 143 137 96 115 129 104 101 105 143 117 155 107 135 142 116 104 130 116 123 155 149 105 109 149 108 122 147 154 110 122 148 100 125 136 113 142 144 106 147 108 98 150 153 106 128 122 133 135 138 142 133 139 144 132 107 
126 95 98 150 141 131 106 96 130 145 109 138 100 124 127 114 149 124 142 145 128 105 153 134 135 99 146 155 127 106 135 120 107 124 100 154 146 126 127 128 96 111 133 125 121 123 131 97 130 101 98 149 119 117 103 130 145 140 132 121 
138 102 134 152 155 115 97 111 102 137 114 113 128 122 99 98 151 109 128 147 122 133 136 146 96 151 128 113 147 131 116 98 155 125 147 119 131 97 99 141 121 139 106 141 152 141 155 102 111 152 101 139 134 127 99 137 136 132 95 146 
145 118 152 120 139 136 145 116 145 116 149 137 99 107 103 114 151 122 152 103 132 126 110 154 139 134 154 154 97 127 109 126 126 148 153 112 130 97 145 122 152 137 134 149 101 96 133 124 122 108 105 148 133 106 137 100 109 137 105 120 
128 97 98 145 119 111 112 102 135 95 126 153 104 144 105 114 139 129 143 125 147 129 117 152 108 95 119 132 113 106 116 130 145 115 114 122 135 144 124 150 147 99 95 120 124 118 121 122 130 125 99 130 147 125 142 106 98 147 131 138 
131 101 102 98 150 110 145 123 116 155 120 131 145 137 100 152 116 151 121 115 112 145 144 148 126 131 110 118 155 109 109 134 110 136 137 152 142 112 134 97 97 103 133 148 107 98 97 141 127 129 124 102 109 135 118 119 152 136 107 140 
111 102 106 131 126 151 113 136 97 105 126 143 138 118 115 131 99 99 146 97 107 122 118 138 109 142 125 96 120 111 112 102 103 111 138 128 113 104 126 97 112 107 125 100 127 104 109 110 145 119 119 136 127 154 121 154 122 150 105 124 
155 133 149 127 132 153 146 116 110 112 125 138 137 121 126 111 135 146 116 131 100 149 106 117 111 119 132 135 122 122 119 144 126 128 97 128 113 121 126 96 107 124 136 116 130 97 129 128 97 116 118 96 124 95 101 110 105 120 127 136 
130 100 120 112 121 119 99 149 132 106 109 103 154 150 140 153 116 140 142 141 130 106 124 150 129 136 110 137 127 139 143 103 105 124 146 145 106 144 106 155 114 131 102 118 146 97 149 98 99 155 103 107 121 148 126 117 116 125 98 126 
137 123 108 104 116 141 108 129 152 110 127 131 155 134 103 117 129 152 155 137 139 141 150 129 111 95 135 146 144 96 143 104 116 123 138 126 146 148 116 151 128 108 123 136 133 101 148 124 152 138 108 110 153 144 110 144 133 120 139 102 
147 151 134 101 131 152 139 147 153 121 141 121 140 147 124 96 101 111 126 109 95 150 121 113 114 129 98 127 153 103 99 115 148 109 140 124 126 127 126 119 117 123 98 147 103 114 140 133 122 96 122 135 111 127 154 101 147 148 95 128 
115 111 136 124 116 151 143 147 103 119 148 111 103 147 112 132 147 122 128 123 113 101 144 102 126 141 136 122 147 121 143 113 143 143 135 108 109 102 148 96 142 133 126 117 104 100 147 125 150 149 130 129 119 147 105 130 137 138 110 100 
142 129 101 153 144 132 108 110 120 118 126 97 145 145 117 148 110 127 145 121 105 102 103 151 124 101 145 109 103 98 113 116 123 121 152 118 143 104 144 122 120 104 103 102 150 106 147 105 136 129 139 121 119 148 125 101 116 113 126 139 
105 113 127 118 114 122 154 120 118 99 108 146 98 101 110 147 111 132 117 128 135 106 142 142 138 138 125 116 153 101 115 104 148 99 149 145 119 97 109 110 105 111 100 116 110 151 111 103 101 140 113 109 132 100 117 115 119 146 130 149 
139 98 96 95 106 128 149 150 125 112 115 103 115 96 128 97 109 142 148 131 142 141 129 105 151 104 95 142 116 113 107 124 115 138 105 149 141 118 145 102 144 115 135 151 100 115 97 105 123 143 110 144 137 119 128 113 120 151 100 103 
132 129 105 108 141 134 103 115 149 99 145 106 102 149 133 132 106 141 147 148 152 109 121 100 132 134 142 133 131 117 152 154 112 141 148 138 99 125 139 96 145 152 128 146 118 142 132 138 129 129 133 111 126 125 144 110 148 105 105 152 
114 123 110 138 155 155 104 113 136 152 131 154 143 115 120 105 106 120 118 111 107 142 109 115 141 125 155 103 134 110 110 131 147 113 118 98 130 126 140 152 141 148 106 127 110 110 130 99 134 110 122 124 143 153 145 150 112 130 150 98 
183 145 188 181 181 154 167 163 200 176 149 195 200 172 164 195 145 165 205 177 152 145 158 160 199 169 164 184 198 198 155 159 191 204 171 154 171 189 154 177 189 148 159 202 188 158 192 148 150 174 190 205 175 170 167 185 191 201 182 170 
200 180 162 188 164 191 150 205 164 158 192 160 185 171 145 196 187 148 168 155 149 154 182 148 163 162 184 153 177 203 205 180 199 191 160 157 194 205 178 205 176 193 188 179 164 195 201 200 196 193 186 189 166 165 147 160 147 205 177 204 
187 152 155 199 193 198 201 192 150 177 184 190 201 161 204 196 160 154 151 156 160 162 198 201 200 192 192 160 205 182 152 161 173 201 200 180 154 172 149 198 148 175 159 155 196 190 185 148 145 187 160 192 163 164 164 155 149 191 172 199 
157 182 187 147 189 151 181 197 198 157 178 159 154 157 154 168 151 165 164 160 155 172 174 201 197 184 166 204 158 174 191 149 177 189 165 148 202 195 154 158 160 153 162 176 145 185 179 145 192 191 147 151 198 188 183 161 146 147 186 156 
149 174 153 152 173 166 185 168 151 201 151 169 158 200 152 204 183 185 151 178 198 148 153 200 182 160 182 200 188 156 161 194 202 150 186 195 168 196 180 195 198 193 156 189 156 164 154 154 200 198 153 153 197 179 148 184 200 180 174 204 
203 154 155 178 203 162 201 191 178 186 196 193 182 191 172 146 163 202 168 155 190 194 173 181 189 182 153 184 186 164 161 195 171 160 166 152 193 196 193 196 190 177 188 204 192 176 160 151 179 197 188 160 171 203 170 185 173 186 191 193 
157 201 168 183 157 183 205 149 165 148 194 187 180 164 190 194 185 173 205 195 146 172 164 179 173 201 180 186 163 185 161 161 202 148 164 198 187 200 197 168 186 192 170 172 145 154 145 197 199 201 145 178 200 189 159 195 196 173 172 198 
204 205 168 172 180 146 181 194 200 164 155 189 173 190 203 150 196 150 170 148 147 192 175 154 196 156 184 150 164 185 155 195 173 158 171 170 155 193 151 192 174 163 166 152 165 152 195 170 169 175 154 197 193 201 155 198 172 184 179 164 
195 157 146 172 151 197 153 191 152 188 177 198 195 155 160 164 165 200 178 194 172 198 155 159 164 146 166 161 162 186 165 198 163 154 193 205 197 190 192 198 148 198 177 177 163 174 151 195 187 188 163 170 176 189 183 163 176 182 189 161 
178 159 153 169 161 201 160 160 148 145 149 171 194 162 204 153 161 157 151 160 145 184 205 175 152 154 182 192 163 151 174 175 157 176 152 187 181 149 167 178 167 182 195 185 169 174 175 146 163 204 196 155 160 193 203 170 168 182 151 194 
205 176 170 190 194 178 184 199 157 172 177 155 165 202 168 203 179 156 203 182 204 158 162 150 172 177 199 190 167 195 177 180 157 186 149 152 161 195 205 162 166 187 148 162 160 161 188 158 200 193 154 150 205 185 195 197 154 158 162 201 
191 176 197 164 198 201 149 164 180 147 175 172 188 165 165 150 179 170 175 187 179 162 151 181 162 158 205 196 201 186 205 157 148 166 175 150 146 155 200 163 194 202 184 155 203 189 194 181 201 201 165 167 177 153 193 193 203 197 204 156 
200 169 165 188 176 196 192 182 163 167 167 193 150 203 191 176 174 157 147 186 147 190 160 153 188 184 145 150 200 194 149 200 171 195 165 200 166 204 198 205 153 179 164 174 149 185 161 187 166 170 163 160 164 146 196 199 184 199 188 194 
172 185 146 195 184 155 183 172 159 154 151 196 202 204 166 180 198 190 176 163 180 194 153 146 167 146 200 146 194 163 200 158 157 178 163 186 194 189 198 175 153 145 197 202 166 151 162 194 203 199 159 158 202 174 203 183 195 204 180 183 
167 147 197 167 199 167 159 175 147 203 148 201 152 146 179 180 189 171 199 173 167 172 191 150 197 204 185 183 186 169 184 184 153 154 168 167 188 186 173 177 172 151 194 180 190 163 182 182 160 191 204 180 190 156 185 163 187 146 184 176 
189 146 147 146 159 152 190 152 164 198 177 163 187 159 151 195 193 195 170 195 175 197 174 174 189 188 193 188 158 160 172 201 203 194 188 190 176 171 198 162 153 181 156 186 157 150 201 170 159 178 188 162 160 204 155 161 188 151 175 159 
192 187 192 174 199 179 191 160 146 162 149 154 167 186 192 175 185 183 148 201 160 152 189 174 157 204 165 193 200 170 172 182 188 172 176 147 164 190 153 170 157 195 182 187 195 149 161 162 199 147 171 181 179 182 154 145 153 178 169 145 
201 205 165 193 178 205 147 163 204 159 199 179 161 200 179 151 187 187 153 205 187 203 146 188 151 152 179 179 176 197 203 171 178 156 155 145 158 164 177 160 167 191 165 181 196 180 168 167 164 202 163 205 162 173 151 191 205 155 174 160 
188 200 170 151 176 193 162 201 156 158 167 205 194 197 153 165 163 154 152 158 151 158 161 198 176 174 172 165 178 191 184 172 177 149 158 169 182 149 183 205 181 175 177 168 171 178 203 180 185 203 158 175 165 156 152 190 186 177 153 204 
173 199 188 187 154 146 172 197 165 174 151 178 185 196 201 198 199 161 194 195 151 168 160 204 194 165 186 160 158 145 173 153 146 158 171 186 203 150 153 188 160 189 173 180 151 178 166 156 150 186 193 189 167 170 151 168 147 205 174 155 
223 228 225 196 200 234 220 232 235 204 208 219 199 205 229 245 217 229 234 254 211 236 211 197 255 240 238 243 249 227 237 195 204 255 216 207 227 201 230 233 237 197 221 206 201 255 204 230 199 222 195 225 236 245 225 239 215 221 250 207 
215 242 207 221 245 198 208 216 204 202 239 209 199 201 224 205 231 196 232 212 209 223 199 211 217 214 246 219 226 232 254 205 230 228 243 233 221 199 218 239 247 240 230 223 243 221 240 206 213 227 225 213 201 231 255 220 254 228 226 211 
210 235 231 239 227 251 226 252 233 196 210 209 218 255 199 247 239 235 233 228 197 244 255 201 247 220 252 252 250 232 198 202 221 254 255 215 224 197 236 233 242 236 236 254 207 252 201 241 255 253 214 239 223 229 195 240 226 255 237 220 
252 205 246 216 216 217 218 237 209 247 253 248 249 215 232 220 201 201 220 254 246 210 196 230 233 197 236 207 196 226 231 204 237 205 219 231 223 228 222 252 234 228 224 224 200 235 250 215 245 248 210 247 255 228 222 234 240 207 200 229 
240 206 241 219 226 255 200 195 223 231 238 236 239 204 220 235 245 230 211 207 217 254 226 219 220 225 232 244 235 201 219 237 210 222 255 249 231 246 209 248 229 213 198 210 213 240 199 199 251 210 252 237 249 212 199 205 248 239 219 201 
242 196 244 207 213 255 199 219 236 252 240 207 246 209 244 219 253 208 220 223 210 247 221 255 215 223 206 245 223 218 242 203 246 238 213 205 217 226 232 215 250 232 249 217 251 233 205 227 248 239 229 227 219 223 202 221 197 207 247 246 
226 255 243 254 237 202 210 237 232 243 221 214 218 205 230 197 254 214 234 222 198 210 195 248 242 239 248 220 249 221 205 239 215 204 211 210 234 221 241 241 250 207 210 224 245 216 199 212 245 234 198 209 232 232 246 249 195 217 237 244 
234 240 212 222 234 246 218 230 212 239 220 225 255 242 249 235 242 242 210 222 211 251 199 229 252 198 218 250 234 213 243 239 217 229 222 253 249 242 222 199 204 233 202 218 235 254 210 225 235 235 239 235 246 252 247 207 228 224 247 214 
249 205 204 208 240 250 233 216 215 219 203 242 229 224 231 222 198 214 200 236 232 237 217 215 229 251 199 224 241 222 252 202 235 205 255 238 223 214 220 232 222 237 201 213 234 197 251 196 207 227 226 228 223 230 230 200 240 212 248 201 
214 234 235 234 240 251 220 217 251 224 241 200 213 207 253 217 212 211 233 205 203 219 211 236 198 222 230 246 201 228 237 232 211 230 236 239 212 218 233 233 246 255 210 201 199 227 218 246 206 207 203 229 212 242 231 233 235 201 203 232 
208 221 208 255 202 196 217 206 203 212 203 205 220 233 254 236 209 227 215 252 223 238 253 215 224 209 198 202 237 241 237 197 218 236 239 236 253 212 195 252 199 229 238 202 200 234 225 217 240 198 211 207 239 235 225 195 225 241 198 251 
204 248 228 222 199 214 246 250 197 211 225 246 204 197 197 206 221 202 202 248 220 200 225 200 246 197 221 219 241 195 225 223 247 204 216 237 244 230 218 221 207 227 201 203 237 242 209 207 234 229 206 209 245 240 212 235 236 243 205 211 
244 230 231 208 218 250 216 206 245 227 221 226 212 201 228 238 227 236 243 252 239 214 213 233 217 244 252 248 233 216 215 229 220 200 209 245 213 204 204 199 208 238 201 243 237 205 219 249 228 232 195 200 211 207 246 230 204 216 247 218 
204 215 226 201 229 240 243 200 230 198 197 223 232 247 237 199 235 196 207 248 254 242 225 239 205 244 219 239 215 219 226 223 219 210 225 200 242 234 215 236 206 224 242 253 247 239 213 244 195 254 226 195 222 254 228 222 221 222 223 247 
212 237 237 233 208 233 247 245 241 239 217 213 247 250 242 213 244 195 216 246 247 241 219 231 220 247 232 239 216 254 235 214 237 205 211 197 205 245 217 195 211 238 242 202 201 247 243 219 208 201 241 229 222 203 220 213 222 245 214 223 
247 253 234 217 246 195 207 250 255 222 241 196 241 207 198 198 220 238 210 213 227 254 202 223 224 204 218 221 230 235 199 247 223 218 255 243 236 233 249 210 247 213 233 231 229 234 210 255 229 233 210 229 238 212 226 232 241 223 249 239 
240 237 236 207 247 222 227 216 208 213 201 204 239 213 207 243 216 211 196 214 229 199 245 251 203 213 226 220 230 240 251 196 229 225 228 245 203 220 234 225 195 249 208 224 225 215 248 198 229 245 230 206 253 225 208 205 205 253 206 240 
212 252 218 250 206 238 210 201 216 229 216 199 220 254 255 196 227 241 249 202 212 233 230 224 216 196 244 227 230 253 223 239 229 196 249 249 227 205 250 229 206 244 215 196 240 236 254 227 224 241 255 223 214 248 195 207 244 206 247 225 
235 228 206 213 239 218 248 245 203 232 230 241 233 217 220 209 244 246 209 223 223 205 195 238 214 217 237 225 207 206 239 217 230 225 222 211 247 200 241 238 253 214 225 210 230 231 224 226 221 249 204 222 228 210 198 197 238 240 254 224 
227 209 222 213 197 228 202 210 222 255 242 199 223 214 210 244 220 204 215 222 196 214 231 254 196 213 251 251 247 227 235 218 207 243 250 222 251 250 220 200 227 209 248 255 207 207 240 216 204 238 244 228 205 233 223 218 238 246 249 209 
